PathFileType	4	(X/Y/Z)	s02c0303.trc
DataRate	CameraRate	NumFrames	NumMarkers	Units	OrigDataRate	OrigDataStartFrame	OrigNumFrames
200	200	5	50	mm	200	0	2000
Frame#	Time	racr			lacr			c7			jug			rlel			rdr			llel			ldr			s2			lic			ric			lasi			rasi			rpsi			lpsi			rgt			lgt			rth1			rth2			rth3			rth4			rlfc			rmfc			rsh1			rsh2			rsh3			rsh4			rlmal			rmmal			rtoe			rmt5			rmt1			lth1			lth2			lth4			lth3			llfc			lmfc			lsh1			lsh2			lsh3			lsh4			llmal			lmmal			lcal			ltoe			lmt5			SBIKE			LBIKE			RBIKE			
		X1	Y1	Z1	X2	Y2	Z2	X3	Y3	Z3	X4	Y4	Z4	X5	Y5	Z5	X6	Y6	Z6	X7	Y7	Z7	X8	Y8	Z8	X9	Y9	Z9	X10	Y10	Z10	X11	Y11	Z11	X12	Y12	Z12	X13	Y13	Z13	X14	Y14	Z14	X15	Y15	Z15	X16	Y16	Z16	X17	Y17	Z17	X18	Y18	Z18	X19	Y19	Z19	X20	Y20	Z20	X21	Y21	Z21	X22	Y22	Z22	X23	Y23	Z23	X24	Y24	Z24	X25	Y25	Z25	X26	Y26	Z26	X27	Y27	Z27	X28	Y28	Z28	X29	Y29	Z29	X30	Y30	Z30	X31	Y31	Z31	X32	Y32	Z32	X33	Y33	Z33	X34	Y34	Z34	X35	Y35	Z35	X36	Y36	Z36	X37	Y37	Z37	X38	Y38	Z38	X39	Y39	Z39	X40	Y40	Z40	X41	Y41	Z41	X42	Y42	Z42	X43	Y43	Z43	X44	Y44	Z44	X45	Y45	Z45	X46	Y46	Z46	X47	Y47	Z47	X48	Y48	Z48	X49	Y49	Z49	X50	Y50	Z50	
0	0.0000	490.028309	1279.056924	-137.244040	506.525193	1285.007047	-478.604743	523.135071	1299.772645	-312.718223	0.000000	0.000000	-0.000000	604.313270	1035.264277	-122.411364	725.913990	839.891590	-138.855701	589.238133	1025.522417	-516.278990	715.756962	831.729825	-485.453796	3.425618	1113.609351	-322.930888	137.923491	1096.312077	-464.654776	132.042912	1099.170612	-178.812798	185.883047	1059.582232	-440.948140	180.737560	1078.811746	-213.962686	20.318190	1136.972060	-283.752954	28.654341	1144.562103	-369.021417	107.474775	1019.686829	-134.428203	82.801716	1007.323004	-500.482040	188.846546	1004.368139	-136.284245	276.149067	993.697571	-144.915517	347.798390	952.369468	-121.072765	285.926226	1016.401020	-173.119144	468.241446	864.180408	-151.368342	464.620040	843.038034	-264.129455	455.303460	751.864614	-134.767033	444.241677	665.025416	-154.251862	395.876726	592.527233	-147.104601	455.412851	662.909792	-191.095000	343.215222	485.503550	-152.528377	349.871035	506.838025	-232.104846	551.826983	421.838162	-196.020419	444.532715	408.281948	-135.103916	468.866836	421.672506	-243.134832	188.141209	912.188031	-518.826413	258.036772	862.017952	-517.878011	283.600628	881.713962	-499.030850	292.788261	778.986790	-518.579844	349.800048	693.983674	-496.893219	357.425262	666.732243	-393.727343	301.645078	601.874153	-513.459631	268.722048	524.070959	-493.817002	198.107396	468.042497	-494.989649	286.316445	516.194206	-458.317448	124.209714	399.870854	-475.156924	139.180457	388.958912	-399.265358	46.967675	400.056953	-432.994022	247.362275	195.689950	-444.510578	152.992126	251.613862	-502.798792	-129.348061	869.152156	-314.106658	32.562992	82.413728	-515.336691	33.348141	81.710739	-115.111749	
1	0.0050	490.018990	1279.061715	-137.255371	506.469045	1284.980360	-478.614028	523.112741	1299.766141	-312.737348	0.000000	0.000000	-0.000000	604.296750	1035.251956	-122.395389	725.905806	839.905433	-138.849597	589.195268	1025.493918	-516.300986	715.762955	831.742829	-485.445869	3.416599	1113.608764	-322.943040	137.910494	1096.301760	-464.647525	132.046113	1099.144379	-178.811301	185.867770	1059.583150	-440.970350	180.727624	1078.820900	-213.947868	20.339433	1136.978555	-283.779935	28.627055	1144.565725	-369.026388	107.471636	1019.678390	-134.430174	82.796948	1007.332619	-500.500600	188.847973	1004.377932	-136.273343	276.144385	993.729643	-144.896905	347.767578	952.392807	-121.054868	285.917157	1016.403927	-173.099386	468.226310	864.211317	-151.297650	464.605903	843.057762	-264.120332	455.305516	751.904038	-134.752646	444.233464	665.040054	-154.245651	395.862211	592.564886	-147.090203	455.399198	662.912687	-191.069278	343.176796	485.552740	-152.532596	350.232748	506.764954	-231.832508	551.808333	421.872332	-196.017782	444.502302	408.320253	-135.099451	468.836627	421.690318	-243.121077	188.120522	912.158054	-518.842524	257.997381	861.993635	-517.873581	283.552905	881.691124	-499.009692	292.755164	778.949358	-518.574510	349.758028	693.957353	-496.872482	357.377872	666.698832	-393.692858	301.599713	601.863413	-513.444362	268.680614	524.044967	-493.815836	198.091297	468.009999	-495.007978	286.281584	516.181564	-458.318373	124.183583	399.834225	-475.154131	139.150837	388.939768	-399.255321	46.947645	399.995105	-432.996390	247.373871	195.669922	-444.517296	152.998925	251.588293	-502.792603	-129.342269	869.148591	-314.094748	32.580928	82.402559	-515.353609	33.380389	81.699620	-115.109341	
2	0.0100	490.012993	1279.057428	-137.257082	506.438539	1284.968531	-478.612649	523.065008	1299.752046	-312.744402	0.000000	0.000000	-0.000000	604.308731	1035.253491	-122.386765	725.903796	839.906298	-138.855881	589.164241	1025.475670	-516.323325	715.757493	831.735228	-485.442339	3.401083	1113.596132	-322.935289	137.917609	1096.302293	-464.641978	132.045537	1099.140966	-178.795703	185.853588	1059.583417	-440.952523	180.706152	1078.823882	-213.941427	20.339433	1136.978555	-283.779935	28.616817	1144.566932	-369.028015	107.468822	1019.686822	-134.421641	82.787235	1007.330007	-500.506534	188.824327	1004.385397	-136.271061	276.128509	993.749380	-144.864144	347.776947	952.412746	-121.034751	285.918372	1016.437083	-173.090190	468.223389	864.240282	-151.293511	464.618826	843.082211	-264.078424	455.294617	751.929738	-134.729638	444.210804	665.088685	-154.217397	395.848515	592.601405	-147.072858	455.380009	662.958299	-191.051973	343.150625	485.606444	-152.514729	349.851256	506.892391	-232.129388	551.776674	421.916041	-196.009321	444.486266	408.347274	-135.097855	468.828297	421.725135	-243.117775	188.106649	912.143153	-518.836021	257.958045	861.967081	-517.866539	283.518391	881.670580	-498.999172	292.717329	778.929829	-518.566776	349.727555	693.944883	-496.867374	357.340327	666.679838	-393.686839	301.568997	601.847147	-513.425640	268.655325	524.021717	-493.807789	198.065318	467.985498	-495.003668	286.249873	516.151799	-458.308352	124.163371	399.789906	-475.151360	139.126481	388.892139	-399.246748	46.938350	399.930119	-432.994373	247.390636	195.650713	-444.522663	153.018809	251.544221	-502.798772	-129.344609	869.152078	-314.101225	32.587209	82.397006	-515.347822	33.378033	81.726142	-115.103439	
3	0.0150	489.996454	1279.047433	-137.270288	506.397919	1284.952918	-478.626133	523.043008	1299.763874	-312.760932	0.000000	0.000000	-0.000000	603.794563	1035.577319	-121.714681	725.897624	839.880603	-138.863246	589.140929	1025.458108	-516.336308	715.864644	831.939974	-485.663160	4.879517	1113.336766	-324.191420	137.918801	1096.108631	-464.694250	132.031980	1099.151308	-178.799922	185.846987	1059.590842	-440.940163	180.705275	1078.831105	-213.938853	20.334134	1136.982579	-283.765453	30.139523	1143.779689	-369.974686	107.946698	1018.595117	-136.825765	82.768793	1007.318507	-500.487230	186.475399	1003.308532	-138.186623	275.924944	993.431277	-145.267750	347.778943	952.452259	-121.016863	285.574305	1016.612542	-172.859715	468.208347	864.276867	-151.252882	464.620473	843.108857	-264.051752	455.960710	751.237778	-135.667890	441.984324	663.291078	-154.502303	395.831032	592.643574	-147.066115	453.342905	661.811100	-191.394775	342.557019	486.518059	-151.776566	349.596132	506.745412	-232.610281	551.754451	421.969139	-196.017136	444.474910	408.385477	-135.098505	468.795032	421.778524	-243.138616	188.084147	912.134653	-518.845514	258.147695	861.541038	-517.898756	283.750249	881.696772	-499.230716	292.700642	778.901546	-518.532182	349.941524	693.849196	-496.700305	357.294749	666.678478	-393.651410	301.532910	601.824030	-513.423752	268.881444	523.939505	-494.227652	197.995587	468.060187	-495.054705	286.248264	516.120248	-458.300390	124.165737	399.752305	-475.144269	139.127367	388.842444	-399.263198	46.933772	399.882233	-432.994827	247.413878	195.629365	-444.534022	152.969418	251.261013	-502.902596	-129.343631	869.152296	-314.096902	32.577923	82.398790	-515.344212	33.082404	81.868485	-115.239141	
4	0.0200	489.606153	1279.305400	-136.696168	506.155371	1285.181902	-478.343555	522.762092	1300.003021	-312.219435	0.000000	0.000000	-0.000000	603.780162	1035.700574	-121.614021	725.837848	839.801187	-138.736821	589.042296	1025.672700	-516.142232	715.732726	831.991894	-485.665717	5.020686	1113.383479	-324.271299	137.920019	1095.806556	-464.778174	131.683602	1099.617549	-178.478169	185.720274	1059.523492	-440.501059	180.635320	1078.739238	-213.947468	18.766425	1138.060453	-282.265919	30.149687	1143.825622	-369.985468	107.456854	1019.059513	-136.100719	82.712228	1007.392449	-500.423716	187.379433	1004.352650	-137.175248	275.685594	993.942162	-144.725040	347.409597	952.893442	-120.489181	285.502114	1016.760641	-172.886331	468.169567	864.430239	-151.314026	464.423815	843.611184	-263.698185	455.523296	751.662531	-135.344155	441.976254	663.858268	-154.248449	395.483617	593.028159	-146.795743	453.335742	661.992468	-191.368245	342.489105	486.578082	-151.687185	349.427696	507.058222	-232.347108	551.449122	422.263674	-195.813480	444.073049	408.838283	-134.717668	468.628247	422.172671	-242.987014	187.913810	912.456600	-518.622151	258.202078	861.658385	-517.916592	283.767420	881.716731	-499.178082	292.708137	778.943958	-518.540560	349.613642	694.204143	-496.486925	356.832509	667.250514	-393.394603	301.382176	602.035037	-513.287713	268.539636	524.244454	-493.775380	197.961172	468.228339	-494.923367	286.061471	516.414307	-457.836277	124.121324	399.730957	-475.134996	139.353700	388.571696	-399.416496	46.769721	400.018391	-432.891234	247.411415	195.633418	-444.433531	153.050350	251.322336	-502.788432	-129.369194	869.152203	-314.115898	32.493823	82.260228	-515.314795	32.644728	82.357569	-115.297181	
